<svg xmlns="http://www.w3.org/2000/svg" enable-background="new 0 0 24 24" height="24px" viewBox="0 0 24 24" width="24px" fill="#FFFFFF"><g><rect fill="none" height="24" width="24"/></g><g><g><path d="M19.99,14.75l-0.05-0.23C19.33,11.83,16.5,10,12.5,10c-4,0-6.83,1.83-7.44,4.52l-0.05,0.23H4v4c0,0.55,0.45,1,1,1h1 c0.55,0,1-0.45,1-1v-1h8v1c0,0.55,0.45,1,1,1h1c0.55,0,1-0.45,1-1v-4H19.99z M8.5,15c-0.83,0-1.5-0.67-1.5-1.5S7.67,12,8.5,12 s1.5,0.67,1.5,1.5S9.33,15,8.5,15z M15.5,15c-0.83,0-1.5-0.67-1.5-1.5s0.67-1.5,1.5-1.5s1.5,0.67,1.5,1.5S16.33,15,15.5,15z"/><path d="M20,6h-3.34c-0.34-1.1-1.05-2.09-2.04-2.88C13.54,2.39,12.1,2,11,2c-1.34,0-2.61,0.53-3.6,1.43L6,5H4C2.9,5,2,5.9,2,7v2 c0,0.55,0.45,1,1,1h1c0.55,0,1-0.45,1-1V8h1l2.57-2.57C8.98,4.92,9.93,4.5,11,4.5c0.75,0,1.43,0.24,2.04,0.66 C13.75,5.7,14.24,6.5,14.47,7.4C14.79,8.57,15.8,9,17,9c2.21,0,4-1.79,4-4C21,4.1,20.55,6,20,6z"/></g></g></svg>